<?xml version="1.0" encoding="UTF-8" standalone="no"?>
<!-- Created with Inkscape (http://www.inkscape.org/) -->

<svg
   width="210mm"
   height="297mm"
   viewBox="0 0 210 297"
   version="1.1"
   id="svg8"
   xmlns:xlink="http://www.w3.org/1999/xlink"
   xmlns="http://www.w3.org/2000/svg"
   xmlns:svg="http://www.w3.org/2000/svg"
   xmlns:rdf="http://www.w3.org/1999/02/22-rdf-syntax-ns#"
   xmlns:cc="http://creativecommons.org/ns#"
   xmlns:dc="http://purl.org/dc/elements/1.1/">
  <defs
     id="defs2" />
  <metadata
     id="metadata5">
    <rdf:RDF>
      <cc:Work
         rdf:about="">
        <dc:format>image/svg+xml</dc:format>
        <dc:type
           rdf:resource="http://purl.org/dc/dcmitype/StillImage" />
      </cc:Work>
    </rdf:RDF>
  </metadata>
  <g
     id="bpm">
    <rect
       style="fill:#00000c;fill-opacity:1;stroke:none;stroke-width:0.79374999;stroke-miterlimit:4;stroke-dasharray:none;stroke-opacity:1"
       id="bg"
       width="148.16667"
       height="111.12501"
       x="18.520834"
       y="70.781242" />
    <path
       style="fill:#76d0c6;stroke:#97e4f8;stroke-width:0.79375;stroke-linecap:butt;stroke-linejoin:miter;stroke-opacity:1;stroke-miterlimit:4;stroke-dasharray:none;fill-opacity:1"
       d="m 99.218753,91.947908 v 26.458342 l -6.614584,6.61458 -6.614583,-6.61458 -10e-7,-26.458343 6.614584,-6.614583 z"
       id="col-center-upper" />
    <path
       style="fill:#76d0c6;stroke:#97e4f8;stroke-width:0.79375;stroke-linecap:butt;stroke-linejoin:miter;stroke-opacity:1;stroke-miterlimit:4;stroke-dasharray:none;fill-opacity:1"
       d="m 99.218753,134.28125 v 26.45833 l -6.614584,6.61458 -6.614583,-6.61458 v -26.45833 l 6.614583,-6.61459 z"
       id="col-center-lower" />
    <path
       style="fill:#76d0c6;stroke:#97e4f8;stroke-width:0.79375;stroke-linecap:butt;stroke-linejoin:miter;stroke-opacity:1;stroke-miterlimit:4;stroke-dasharray:none;fill-opacity:1"
       d="m 83.343752,132.95833 -42.333333,0 -6.614585,-6.61458 6.614585,-6.61459 42.333333,0 6.614584,6.61459 z"
       id="bar-middle-left" />
    <path
       style="fill:#76d0c6;stroke:#97e4f8;stroke-width:0.79375;stroke-linecap:butt;stroke-linejoin:miter;stroke-opacity:1;stroke-miterlimit:4;stroke-dasharray:none;fill-opacity:1"
       d="m 83.343752,90.624995 -42.333334,0 -13.229167,-13.229167 55.562501,0 6.614584,6.614583 z"
       id="diag-top-left" />
    <path
       style="fill:#76d0c6;stroke:#97e4f8;stroke-width:0.79375;stroke-linecap:butt;stroke-linejoin:miter;stroke-opacity:1;stroke-miterlimit:4;stroke-dasharray:none;fill-opacity:1"
       d="m 83.343752,175.29166 -55.562501,0 13.22916,-13.22917 42.333341,1e-5 6.614584,6.61458 z"
       id="diag-bottom-left" />
    <path
       style="fill:#76d0c6;stroke:#97e4f8;stroke-width:0.79375;stroke-linecap:butt;stroke-linejoin:miter;stroke-opacity:1;stroke-miterlimit:4;stroke-dasharray:none;fill-opacity:1"
       d="m 38.364584,91.947912 v 26.458328 l -6.614583,6.61459 -6.614587,-6.61459 3e-6,-39.687495 z"
       id="col-left-upper" />
    <path
       style="fill:#76d0c6;stroke:#97e4f8;stroke-width:0.79375;stroke-linecap:butt;stroke-linejoin:miter;stroke-opacity:1;stroke-miterlimit:4;stroke-dasharray:none;fill-opacity:1"
       d="m 38.364584,134.28125 v 26.45833 l -13.229167,13.22917 -3e-6,-39.6875 6.614587,-6.61459 z"
       id="col-left-lower" />
    <path
       style="fill:#76d0c6;stroke:#97e4f8;stroke-width:0.79375;stroke-linecap:butt;stroke-linejoin:miter;stroke-opacity:1;stroke-miterlimit:4;stroke-dasharray:none;fill-opacity:1"
       d="m 41.010411,159.41665 1e-6,-9.26042 30.42709,-14.55207 h 11.90625 v 9.26042 l -30.427087,14.55207 z"
       id="brace-lower-left" />
    <path
       style="fill:#76d0c6;stroke:#97e4f8;stroke-width:0.79375;stroke-linecap:butt;stroke-linejoin:miter;stroke-opacity:1;stroke-miterlimit:4;stroke-dasharray:none;fill-opacity:1"
       d="m 41.01041,93.27083 10e-7,9.26042 30.427091,14.55208 h 11.90625 v -9.26042 L 52.916665,93.27083 Z"
       id="brace-upper-left" />
    <path
       style="fill:#76d0c6;stroke:#97e4f8;stroke-width:0.79375;stroke-linecap:butt;stroke-linejoin:miter;stroke-opacity:1;stroke-miterlimit:4;stroke-dasharray:none;fill-opacity:1"
       d="m 101.86459,132.95833 h 42.33333 l 6.61459,-6.61458 -6.61459,-6.61459 h -42.33333 l -6.614588,6.61459 z"
       id="bar-middle-right" />
    <path
       style="fill:#76d0c6;stroke:#97e4f8;stroke-width:0.79375;stroke-linecap:butt;stroke-linejoin:miter;stroke-opacity:1;stroke-miterlimit:4;stroke-dasharray:none;fill-opacity:1"
       d="m 101.86459,90.624998 h 42.33333 l 13.22917,-13.22917 h -55.5625 l -6.614588,6.61458 z"
       id="diag-top-right" />
    <path
       style="fill:#76d0c6;stroke:#97e4f8;stroke-width:0.79375;stroke-linecap:butt;stroke-linejoin:miter;stroke-opacity:1;stroke-miterlimit:4;stroke-dasharray:none;fill-opacity:1"
       d="m 101.86459,175.29166 h 55.5625 l -13.22916,-13.22917 -42.33334,1e-5 -6.614588,6.61458 z"
       id="diag-bottom-right" />
    <path
       style="fill:#76d0c6;stroke:#97e4f8;stroke-width:0.79375;stroke-linecap:butt;stroke-linejoin:miter;stroke-opacity:1;stroke-miterlimit:4;stroke-dasharray:none;fill-opacity:1"
       d="m 146.84376,91.947908 v 26.458332 l 6.61458,6.61459 6.61459,-6.61459 -1e-5,-39.687492 z"
       id="col-right-upper" />
    <path
       style="fill:#76d0c6;stroke:#97e4f8;stroke-width:0.79375;stroke-linecap:butt;stroke-linejoin:miter;stroke-opacity:1;stroke-miterlimit:4;stroke-dasharray:none;fill-opacity:1"
       d="m 146.84376,134.28125 v 26.45833 l 13.22916,13.22917 1e-5,-39.6875 -6.61459,-6.61459 z"
       id="col-right-lower" />
    <path
       style="fill:#76d0c6;stroke:#97e4f8;stroke-width:0.79375;stroke-linecap:butt;stroke-linejoin:miter;stroke-opacity:1;stroke-miterlimit:4;stroke-dasharray:none;fill-opacity:1"
       d="m 144.19793,159.41665 v -9.26042 l -30.42709,-14.55207 h -11.90625 v 9.26042 l 30.42708,14.55207 z"
       id="brace-lower-right" />
    <path
       style="fill:#76d0c6;stroke:#97e4f8;stroke-width:0.79375;stroke-linecap:butt;stroke-linejoin:miter;stroke-opacity:1;stroke-miterlimit:4;stroke-dasharray:none;fill-opacity:1"
       d="m 144.19793,93.270828 v 9.260422 l -30.42709,14.55208 h -11.90625 v -9.26042 l 30.42708,-14.552082 z"
       id="brace-upper-right" />
  </g>
</svg>
